<svg width="200" height="21" viewBox="0 0 1621 181" fill="none" xmlns="http://www.w3.org/2000/svg">
<path d="M266.488 97.5195C270.746 97.5195 274.203 97.0508 276.859 96.1133C281.898 94.3164 284.418 90.9766 284.418 86.0938C284.418 83.2422 283.168 81.0352 280.668 79.4727C278.168 77.9492 274.242 76.6016 268.891 75.4297L259.75 73.3789C250.766 71.3477 244.555 69.1406 241.117 66.7578C235.297 62.7734 232.387 56.543 232.387 48.0664C232.387 40.332 235.199 33.9062 240.824 28.7891C246.449 23.6719 254.711 21.1133 265.609 21.1133C274.711 21.1133 282.465 23.5352 288.871 28.3789C295.316 33.1836 298.695 40.1758 299.008 49.3555H281.664C281.352 44.1602 279.086 40.4687 274.867 38.2812C272.055 36.8359 268.559 36.1133 264.379 36.1133C259.73 36.1133 256.02 37.0508 253.246 38.9258C250.473 40.8008 249.086 43.418 249.086 46.7773C249.086 49.8633 250.453 52.168 253.188 53.6914C254.945 54.707 258.695 55.8984 264.438 57.2656L279.32 60.8398C285.844 62.4023 290.766 64.4922 294.086 67.1094C299.242 71.1719 301.82 77.0508 301.82 84.7461C301.82 92.6367 298.793 99.1992 292.738 104.434C286.723 109.629 278.207 112.227 267.191 112.227C255.941 112.227 247.094 109.668 240.648 104.551C234.203 99.3945 230.98 92.3242 230.98 83.3398H248.207C248.754 87.2852 249.828 90.2344 251.43 92.1875C254.359 95.7422 259.379 97.5195 266.488 97.5195ZM316.234 53.0469C320.648 47.4219 328.227 44.6094 338.969 44.6094C345.961 44.6094 352.172 45.9961 357.602 48.7695C363.031 51.543 365.746 56.7773 365.746 64.4727V93.7695C365.746 95.8008 365.785 98.2617 365.863 101.152C365.98 103.34 366.312 104.824 366.859 105.605C367.406 106.387 368.227 107.031 369.32 107.539V110H351.156C350.648 108.711 350.297 107.5 350.102 106.367C349.906 105.234 349.75 103.945 349.633 102.5C347.328 105 344.672 107.129 341.664 108.887C338.07 110.957 334.008 111.992 329.477 111.992C323.695 111.992 318.91 110.352 315.121 107.07C311.371 103.75 309.496 99.0625 309.496 93.0078C309.496 85.1562 312.523 79.4727 318.578 75.957C321.898 74.043 326.781 72.6758 333.227 71.8555L338.91 71.1523C341.996 70.7617 344.203 70.2734 345.531 69.6875C347.914 68.6719 349.105 67.0898 349.105 64.9414C349.105 62.3242 348.188 60.5273 346.352 59.5508C344.555 58.5352 341.898 58.0273 338.383 58.0273C334.438 58.0273 331.645 59.0039 330.004 60.957C328.832 62.4023 328.051 64.3555 327.66 66.8164H311.547C311.898 61.2305 313.461 56.6406 316.234 53.0469ZM328.656 97.9297C330.219 99.2188 332.133 99.8633 334.398 99.8633C337.992 99.8633 341.293 98.8086 344.301 96.6992C347.348 94.5898 348.93 90.7422 349.047 85.1562V78.9453C347.992 79.6094 346.918 80.1562 345.824 80.5859C344.77 80.9766 343.305 81.3477 341.43 81.6992L337.68 82.4023C334.164 83.0273 331.645 83.7891 330.121 84.6875C327.543 86.2109 326.254 88.5742 326.254 91.7773C326.254 94.6289 327.055 96.6797 328.656 97.9297ZM416.488 63.7109C415.082 60.625 412.328 59.082 408.227 59.082C403.461 59.082 400.258 60.625 398.617 63.7109C397.719 65.4688 397.27 68.0859 397.27 71.5625V110H380.336V46.25H396.566V55.5664C398.637 52.2461 400.59 49.8828 402.426 48.4766C405.668 45.9766 409.867 44.7266 415.023 44.7266C419.906 44.7266 423.852 45.8008 426.859 47.9492C429.281 49.9414 431.117 52.5 432.367 55.625C434.555 51.875 437.27 49.1211 440.512 47.3633C443.949 45.6055 447.777 44.7266 451.996 44.7266C454.809 44.7266 457.582 45.2734 460.316 46.3672C463.051 47.4609 465.531 49.375 467.758 52.1094C469.555 54.3359 470.766 57.0703 471.391 60.3125C471.781 62.4609 471.977 65.6055 471.977 69.7461L471.859 110H454.75V69.3359C454.75 66.9141 454.359 64.9219 453.578 63.3594C452.094 60.3906 449.359 58.9062 445.375 58.9062C440.766 58.9062 437.582 60.8203 435.824 64.6484C434.926 66.6797 434.477 69.1211 434.477 71.9727V110H417.66V71.9727C417.66 68.1836 417.27 65.4297 416.488 63.7109ZM540.883 52.9883C546.039 58.4961 548.617 66.582 548.617 77.2461C548.617 88.4961 546.078 97.0703 541 102.969C535.961 108.867 529.457 111.816 521.488 111.816C516.41 111.816 512.191 110.547 508.832 108.008C506.996 106.602 505.199 104.551 503.441 101.855V135.137H486.918V46.1328H502.914V55.5664C504.711 52.793 506.625 50.6055 508.656 49.0039C512.367 46.1523 516.781 44.7266 521.898 44.7266C529.359 44.7266 535.688 47.4805 540.883 52.9883ZM531.391 78.0664C531.391 73.1445 530.258 68.7891 527.992 65C525.766 61.2109 522.133 59.3164 517.094 59.3164C511.039 59.3164 506.879 62.1875 504.613 67.9297C503.441 70.9766 502.855 74.8438 502.855 79.5312C502.855 86.9531 504.828 92.168 508.773 95.1758C511.117 96.9336 513.891 97.8125 517.094 97.8125C521.742 97.8125 525.277 96.0156 527.699 92.4219C530.16 88.8281 531.391 84.043 531.391 78.0664ZM561.098 23.6328H577.797V110H561.098V23.6328ZM648.812 91.25C648.383 95.0391 646.41 98.8867 642.895 102.793C637.426 109.004 629.77 112.109 619.926 112.109C611.801 112.109 604.633 109.492 598.422 104.258C592.211 99.0234 589.105 90.5078 589.105 78.7109C589.105 67.6562 591.898 59.1797 597.484 53.2812C603.109 47.3828 610.395 44.4336 619.34 44.4336C624.652 44.4336 629.438 45.4297 633.695 47.4219C637.953 49.4141 641.469 52.5586 644.242 56.8555C646.742 60.6445 648.363 65.0391 649.105 70.0391C649.535 72.9688 649.711 77.1875 649.633 82.6953H605.922C606.156 89.1016 608.168 93.5938 611.957 96.1719C614.262 97.7734 617.035 98.5742 620.277 98.5742C623.715 98.5742 626.508 97.5977 628.656 95.6445C629.828 94.5898 630.863 93.125 631.762 91.25H648.812ZM632.289 71.6797C632.016 67.2656 630.668 63.9258 628.246 61.6602C625.863 59.3555 622.895 58.2031 619.34 58.2031C615.473 58.2031 612.465 59.4141 610.316 61.8359C608.207 64.2578 606.879 67.5391 606.332 71.6797H632.289ZM704.945 49.0625C709.945 52.2656 712.816 57.7734 713.559 65.5859H696.859C696.625 63.4375 696.02 61.7383 695.043 60.4883C693.207 58.2227 690.082 57.0898 685.668 57.0898C682.035 57.0898 679.438 57.6562 677.875 58.7891C676.352 59.9219 675.59 61.25 675.59 62.7734C675.59 64.6875 676.41 66.0742 678.051 66.9336C679.691 67.832 685.492 69.375 695.453 71.5625C702.094 73.125 707.074 75.4883 710.395 78.6523C713.676 81.8555 715.316 85.8594 715.316 90.6641C715.316 96.9922 712.953 102.168 708.227 106.191C703.539 110.176 696.273 112.168 686.43 112.168C676.391 112.168 668.969 110.059 664.164 105.84C659.398 101.582 657.016 96.1719 657.016 89.6094H673.949C674.301 92.5781 675.062 94.6875 676.234 95.9375C678.305 98.1641 682.133 99.2773 687.719 99.2773C691 99.2773 693.598 98.7891 695.512 97.8125C697.465 96.8359 698.441 95.3711 698.441 93.418C698.441 91.543 697.66 90.1172 696.098 89.1406C694.535 88.1641 688.734 86.4844 678.695 84.1016C671.469 82.3047 666.371 80.0586 663.402 77.3633C660.434 74.707 658.949 70.8789 658.949 65.8789C658.949 59.9805 661.254 54.9219 665.863 50.7031C670.512 46.4453 677.035 44.3164 685.434 44.3164C693.402 44.3164 699.906 45.8984 704.945 49.0625ZM780.59 110V71.4453H746.84V110H728.969V23.6328H746.84V56.5625H780.59V23.6328H798.52V110H780.59ZM855.414 100.977C855.258 101.172 854.867 101.758 854.242 102.734C853.617 103.711 852.875 104.57 852.016 105.312C849.398 107.656 846.859 109.258 844.398 110.117C841.977 110.977 839.125 111.406 835.844 111.406C826.391 111.406 820.023 108.008 816.742 101.211C814.906 97.4609 813.988 91.9336 813.988 84.6289V46.1328H831.098V84.6289C831.098 88.2617 831.527 90.9961 832.387 92.832C833.91 96.0742 836.898 97.6953 841.352 97.6953C847.055 97.6953 850.961 95.3906 853.07 90.7812C854.164 88.2812 854.711 84.9805 854.711 80.8789V46.1328H871.645V110H855.414V100.977ZM917.875 58.4961C912.211 58.4961 908.324 60.8984 906.215 65.7031C905.121 68.2422 904.574 71.4844 904.574 75.4297V110H887.934V46.25H904.047V55.5664C906.195 52.2852 908.227 49.9219 910.141 48.4766C913.578 45.8984 917.934 44.6094 923.207 44.6094C929.809 44.6094 935.199 46.3477 939.379 49.8242C943.598 53.2617 945.707 58.9844 945.707 66.9922V110H928.598V71.1523C928.598 67.793 928.148 65.2148 927.25 63.418C925.609 60.1367 922.484 58.4961 917.875 58.4961ZM990.414 98.1055V110.586L982.504 110.879C974.613 111.152 969.223 109.785 966.332 106.777C964.457 104.863 963.52 101.914 963.52 97.9297V58.6133H954.613V46.7188H963.52V28.9062H980.043V46.7188H990.414V58.6133H980.043V92.3633C980.043 94.9805 980.375 96.6211 981.039 97.2852C981.703 97.9102 983.734 98.2227 987.133 98.2227C987.641 98.2227 988.168 98.2227 988.715 98.2227C989.301 98.1836 989.867 98.1445 990.414 98.1055ZM1055.8 91.25C1055.38 95.0391 1053.4 98.8867 1049.89 102.793C1044.42 109.004 1036.76 112.109 1026.92 112.109C1018.79 112.109 1011.62 109.492 1005.41 104.258C999.203 99.0234 996.098 90.5078 996.098 78.7109C996.098 67.6562 998.891 59.1797 1004.48 53.2812C1010.1 47.3828 1017.39 44.4336 1026.33 44.4336C1031.64 44.4336 1036.43 45.4297 1040.69 47.4219C1044.95 49.4141 1048.46 52.5586 1051.23 56.8555C1053.73 60.6445 1055.36 65.0391 1056.1 70.0391C1056.53 72.9688 1056.7 77.1875 1056.62 82.6953H1012.91C1013.15 89.1016 1015.16 93.5938 1018.95 96.1719C1021.25 97.7734 1024.03 98.5742 1027.27 98.5742C1030.71 98.5742 1033.5 97.5977 1035.65 95.6445C1036.82 94.5898 1037.86 93.125 1038.75 91.25H1055.8ZM1039.28 71.6797C1039.01 67.2656 1037.66 63.9258 1035.24 61.6602C1032.86 59.3555 1029.89 58.2031 1026.33 58.2031C1022.46 58.2031 1019.46 59.4141 1017.31 61.8359C1015.2 64.2578 1013.87 67.5391 1013.32 71.6797H1039.28ZM1100.04 61.543C1093.32 61.543 1088.81 63.7305 1086.51 68.1055C1085.22 70.5664 1084.57 74.3555 1084.57 79.4727V110H1067.76V46.1328H1083.7V57.2656C1086.27 53.0078 1088.52 50.0977 1090.43 48.5352C1093.56 45.918 1097.62 44.6094 1102.62 44.6094C1102.93 44.6094 1103.19 44.6289 1103.38 44.668C1103.62 44.668 1104.11 44.6875 1104.85 44.7266V61.8359C1103.79 61.7188 1102.86 61.6406 1102.04 61.6016C1101.21 61.5625 1100.55 61.543 1100.04 61.543ZM1167.13 76.7188V23.6328H1185.47V76.7188C1185.47 85.8984 1184.05 93.0469 1181.2 98.1641C1175.88 107.539 1165.75 112.227 1150.79 112.227C1135.82 112.227 1125.67 107.539 1120.32 98.1641C1117.46 93.0469 1116.04 85.8984 1116.04 76.7188V23.6328H1134.38V76.7188C1134.38 82.6562 1135.08 86.9922 1136.49 89.7266C1138.68 94.5703 1143.44 96.9922 1150.79 96.9922C1158.09 96.9922 1162.84 94.5703 1165.02 89.7266C1166.43 86.9922 1167.13 82.6562 1167.13 76.7188ZM1234.11 97.5195C1238.36 97.5195 1241.82 97.0508 1244.48 96.1133C1249.52 94.3164 1252.04 90.9766 1252.04 86.0938C1252.04 83.2422 1250.79 81.0352 1248.29 79.4727C1245.79 77.9492 1241.86 76.6016 1236.51 75.4297L1227.37 73.3789C1218.38 71.3477 1212.17 69.1406 1208.73 66.7578C1202.91 62.7734 1200 56.543 1200 48.0664C1200 40.332 1202.82 33.9062 1208.44 28.7891C1214.07 23.6719 1222.33 21.1133 1233.23 21.1133C1242.33 21.1133 1250.08 23.5352 1256.49 28.3789C1262.93 33.1836 1266.31 40.1758 1266.62 49.3555H1249.28C1248.97 44.1602 1246.7 40.4687 1242.48 38.2812C1239.67 36.8359 1236.18 36.1133 1232 36.1133C1227.35 36.1133 1223.64 37.0508 1220.86 38.9258C1218.09 40.8008 1216.7 43.418 1216.7 46.7773C1216.7 49.8633 1218.07 52.168 1220.8 53.6914C1222.56 54.707 1226.31 55.8984 1232.05 57.2656L1246.94 60.8398C1253.46 62.4023 1258.38 64.4922 1261.7 67.1094C1266.86 71.1719 1269.44 77.0508 1269.44 84.7461C1269.44 92.6367 1266.41 99.1992 1260.36 104.434C1254.34 109.629 1245.82 112.227 1234.81 112.227C1223.56 112.227 1214.71 109.668 1208.27 104.551C1201.82 99.3945 1198.6 92.3242 1198.6 83.3398H1215.82C1216.37 87.2852 1217.45 90.2344 1219.05 92.1875C1221.98 95.7422 1227 97.5195 1234.11 97.5195ZM1333.36 92.2461H1301.55L1295.57 110H1276.7L1307.52 23.6328H1327.91L1358.5 110H1338.93L1333.36 92.2461ZM1328.32 77.3633L1317.54 43.3789L1306.41 77.3633H1328.32ZM1370.63 97.2266H1382.88V110H1370.63V97.2266ZM1425.71 45.4297C1432.78 45.4297 1438.52 47.1484 1442.93 50.5859C1447.39 54.0234 1450.06 59.9414 1450.96 68.3398H1440.71C1440.08 64.4727 1438.66 61.2695 1436.43 58.7305C1434.2 56.1523 1430.63 54.8633 1425.71 54.8633C1418.99 54.8633 1414.18 58.1445 1411.29 64.707C1409.42 68.9648 1408.48 74.2188 1408.48 80.4688C1408.48 86.7578 1409.81 92.0508 1412.46 96.3477C1415.12 100.645 1419.3 102.793 1425 102.793C1429.38 102.793 1432.84 101.465 1435.38 98.8086C1437.95 96.1133 1439.73 92.4414 1440.71 87.793H1450.96C1449.79 96.1133 1446.86 102.207 1442.17 106.074C1437.48 109.902 1431.49 111.816 1424.18 111.816C1415.98 111.816 1409.44 108.828 1404.55 102.852C1399.67 96.8359 1397.23 89.3359 1397.23 80.3516C1397.23 69.3359 1399.91 60.7617 1405.26 54.6289C1410.61 48.4961 1417.43 45.4297 1425.71 45.4297ZM1486.41 103.203C1493.4 103.203 1498.19 100.566 1500.77 95.293C1503.38 89.9805 1504.69 84.082 1504.69 77.5977C1504.69 71.7383 1503.75 66.9727 1501.88 63.3008C1498.91 57.5195 1493.79 54.6289 1486.53 54.6289C1480.08 54.6289 1475.39 57.0898 1472.46 62.0117C1469.54 66.9336 1468.07 72.8711 1468.07 79.8242C1468.07 86.5039 1469.54 92.0703 1472.46 96.5234C1475.39 100.977 1480.04 103.203 1486.41 103.203ZM1486.82 45.4297C1494.91 45.4297 1501.74 48.125 1507.33 53.5156C1512.91 58.9062 1515.71 66.8359 1515.71 77.3047C1515.71 87.4219 1513.25 95.7812 1508.32 102.383C1503.4 108.984 1495.77 112.285 1485.41 112.285C1476.78 112.285 1469.93 109.375 1464.85 103.555C1459.77 97.6953 1457.23 89.8438 1457.23 80C1457.23 69.4531 1459.91 61.0547 1465.26 54.8047C1470.61 48.5547 1477.8 45.4297 1486.82 45.4297ZM1528.3 47.2461H1538.73V56.1523C1541.23 53.0664 1543.5 50.8203 1545.53 49.4141C1549.01 47.0312 1552.95 45.8398 1557.37 45.8398C1562.37 45.8398 1566.39 47.0703 1569.44 49.5312C1571.16 50.9375 1572.72 53.0078 1574.12 55.7422C1576.47 52.3828 1579.22 49.9023 1582.39 48.3008C1585.55 46.6602 1589.11 45.8398 1593.05 45.8398C1601.49 45.8398 1607.23 48.8867 1610.28 54.9805C1611.92 58.2617 1612.74 62.6758 1612.74 68.2227V110H1601.78V66.4062C1601.78 62.2266 1600.73 59.3555 1598.62 57.793C1596.55 56.2305 1594.01 55.4492 1591 55.4492C1586.86 55.4492 1583.29 56.8359 1580.28 59.6094C1577.31 62.3828 1575.82 67.0117 1575.82 73.4961V110H1565.1V69.043C1565.1 64.7852 1564.59 61.6797 1563.58 59.7266C1561.98 56.7969 1558.99 55.332 1554.61 55.332C1550.63 55.332 1547 56.875 1543.71 59.9609C1540.47 63.0469 1538.85 68.6328 1538.85 76.7188V110H1528.3V47.2461Z" fill="black"/>
<path d="M6.41748 180.279H175.417V12.2793H6.41748V180.279Z" fill="white" fill-opacity="0.01"/>
<path d="M38.75 24.6759V127.824C38.75 130.268 40.7316 132.25 43.1759 132.25H152.23C154.675 132.25 156.656 130.268 156.656 127.824V24.6759C156.656 22.2315 154.675 20.25 152.23 20.25H43.1759C40.7315 20.25 38.75 22.2316 38.75 24.6759Z" stroke="black" stroke-width="7"/>
<path fill-rule="evenodd" clip-rule="evenodd" d="M145.25 123.5C146.7 123.5 147.875 122.325 147.875 120.875V120.875C147.875 119.425 146.7 118.25 145.25 118.25L50.1562 118.25C48.7065 118.25 47.5313 119.425 47.5313 120.875V120.875C47.5313 122.325 48.7065 123.5 50.1562 123.5H145.25Z" fill="url(#paint0_linear_10133_3)"/>
<path fill-rule="evenodd" clip-rule="evenodd" d="M79.2188 34.25C76.302 34.25 73.9375 36.6145 73.9375 39.5313L73.9375 83.7783C73.9375 85.4195 75.268 86.75 76.9092 86.75H118.497C120.138 86.75 121.469 85.4195 121.469 83.7783V39.5312C121.469 36.6145 119.104 34.25 116.188 34.25V34.25C113.271 34.25 110.906 36.6145 110.906 39.5313V74.25C110.906 75.3546 110.011 76.25 108.906 76.25H86.5C85.3954 76.25 84.5 75.3546 84.5 74.25V39.5312C84.5 36.6145 82.1355 34.25 79.2188 34.25V34.25Z" fill="black"/>
<path fill-rule="evenodd" clip-rule="evenodd" d="M126.75 50L169 92V176H84.5L42.25 134L126.75 50Z" fill="url(#paint1_linear_10133_3)"/>
<path d="M12.3438 50.9259V154.074C12.3438 156.518 14.3253 158.5 16.7697 158.5H125.824C128.268 158.5 130.25 156.518 130.25 154.074V50.9259C130.25 48.4815 128.268 46.5 125.824 46.5H16.7697C14.3253 46.5 12.3438 48.4816 12.3438 50.9259Z" fill="white" stroke="black" stroke-width="7"/>
<path fill-rule="evenodd" clip-rule="evenodd" d="M118.844 149.75C120.294 149.75 121.469 148.575 121.469 147.125V147.125C121.469 145.675 120.294 144.5 118.844 144.5L23.75 144.5C22.3002 144.5 21.125 145.675 21.125 147.125V147.125C21.125 148.575 22.3003 149.75 23.75 149.75H118.844Z" fill="#D8D8D8"/>
<path fill-rule="evenodd" clip-rule="evenodd" d="M52.8125 60.5C49.8957 60.5 47.5313 62.8645 47.5313 65.7813L47.5312 110.028C47.5312 111.67 48.8617 113 50.5029 113H92.0908C93.732 113 95.0625 111.67 95.0625 110.028V65.7812C95.0625 62.8645 92.698 60.5 89.7812 60.5V60.5C86.8645 60.5 84.5 62.8645 84.5 65.7813V100.5C84.5 101.605 83.6046 102.5 82.5 102.5H60.0937C58.9892 102.5 58.0938 101.605 58.0938 100.5V65.7812C58.0938 62.8645 55.7293 60.5 52.8125 60.5V60.5Z" fill="black"/>
<defs>
<linearGradient id="paint0_linear_10133_3" x1="146.48" y1="118.264" x2="48.9261" y2="118.264" gradientUnits="userSpaceOnUse">
<stop stop-opacity="0.01"/>
<stop offset="0.484745" stop-opacity="0.1"/>
<stop offset="1" stop-opacity="0.01"/>
</linearGradient>
<linearGradient id="paint1_linear_10133_3" x1="40.113" y1="98.6024" x2="99.5039" y2="169.778" gradientUnits="userSpaceOnUse">
<stop stop-opacity="0.1"/>
<stop offset="1" stop-opacity="0.01"/>
</linearGradient>
</defs>
</svg>
